<svg width="20" height="20" viewBox="0 0 20 20" fill="none" xmlns="http://www.w3.org/2000/svg">
<g id="shipping_icon">
<path id="Vector" d="M4.66904 16.6465C3.98685 16.6465 3.40617 16.4104 2.927 15.9382C2.44784 15.4659 2.20825 14.8826 2.20825 14.1882H2.08325C1.7395 14.1882 1.44523 14.0658 1.20044 13.821C0.955648 13.5762 0.833252 13.2819 0.833252 12.9382V4.58398C0.833252 4.25065 0.958252 3.95898 1.20825 3.70898C1.45825 3.45898 1.74992 3.33398 2.08325 3.33398H12.8958C13.2395 3.33398 13.5338 3.45638 13.7786 3.70117C14.0234 3.94596 14.1458 4.24023 14.1458 4.58398V6.81315H16.0208C16.1249 6.81315 16.2187 6.83398 16.302 6.87565C16.3853 6.91732 16.4583 6.97982 16.5208 7.06315L19.0416 10.4173C19.0833 10.4694 19.1145 10.5267 19.1353 10.5892C19.1562 10.6517 19.1666 10.7194 19.1666 10.7923V13.5632C19.1666 13.7402 19.1067 13.8887 18.9869 14.0085C18.8671 14.1283 18.7187 14.1882 18.5416 14.1882H17.6874C17.6874 14.8826 17.4487 15.4659 16.9711 15.9382C16.4936 16.4104 15.9137 16.6465 15.2315 16.6465C14.5493 16.6465 13.9687 16.4104 13.4895 15.9382C13.0103 15.4659 12.7708 14.8826 12.7708 14.1882H7.12492C7.12492 14.8826 6.88616 15.4659 6.40863 15.9382C5.93109 16.4104 5.35122 16.6465 4.66904 16.6465ZM4.66659 15.3965C4.99992 15.3965 5.28464 15.2784 5.52075 15.0423C5.75686 14.8062 5.87492 14.5215 5.87492 14.1882C5.87492 13.8548 5.75686 13.5701 5.52075 13.334C5.28464 13.0979 4.99992 12.9798 4.66659 12.9798C4.33325 12.9798 4.04853 13.0979 3.81242 13.334C3.57631 13.5701 3.45825 13.8548 3.45825 14.1882C3.45825 14.5215 3.57631 14.8062 3.81242 15.0423C4.04853 15.2784 4.33325 15.3965 4.66659 15.3965ZM2.08325 4.58398V12.9382H2.54159C2.7777 12.5632 3.07659 12.2645 3.43827 12.0423C3.79995 11.8201 4.20273 11.709 4.64661 11.709C5.09048 11.709 5.49645 11.8236 5.8645 12.0527C6.23256 12.2819 6.53464 12.577 6.77075 12.9382H12.8958V4.58398H2.08325ZM15.2291 15.3965C15.5624 15.3965 15.8471 15.2784 16.0833 15.0423C16.3194 14.8062 16.4374 14.5215 16.4374 14.1882C16.4374 13.8548 16.3194 13.5701 16.0833 13.334C15.8471 13.0979 15.5624 12.9798 15.2291 12.9798C14.8958 12.9798 14.611 13.0979 14.3749 13.334C14.1388 13.5701 14.0208 13.8548 14.0208 14.1882C14.0208 14.5215 14.1388 14.8062 14.3749 15.0423C14.611 15.2784 14.8958 15.3965 15.2291 15.3965ZM14.1458 11.1465H18.0208L15.7083 8.06315H14.1458V11.1465Z" fill="#202223"/>
</g>
</svg>
